<?xml version="1.0" standalone="no"?>
<!DOCTYPE svg PUBLIC "-//W3C//DTD SVG 20010904//EN"
 "http://www.w3.org/TR/2001/REC-SVG-20010904/DTD/svg10.dtd">
<svg version="1.0" xmlns="http://www.w3.org/2000/svg"
 width="980.000000pt" height="980.000000pt" viewBox="0 0 980.000000 980.000000"
 preserveAspectRatio="xMidYMid meet">
<metadata>
Created by potrace 1.14, written by Peter Selinger 2001-2017
</metadata>
<g transform="translate(0.000000,980.000000) scale(0.100000,-0.100000)"
fill="#000000" stroke="none">
<path d="M1520 9769 c-291 -15 -460 -50 -650 -133 -299 -132 -564 -397 -696
-696 -87 -197 -117 -349 -134 -679 -13 -251 -13 -6471 0 -6722 17 -330 47
-482 134 -679 132 -299 397 -564 696 -696 197 -87 349 -117 679 -134 251 -13
6451 -13 6702 0 330 17 482 47 679 134 299 132 564 397 696 696 87 197 117
349 134 679 13 251 13 6471 0 6722 -17 330 -47 482 -134 679 -132 299 -397
564 -696 696 -197 87 -349 117 -679 134 -219 12 -6509 11 -6731 -1z m4300
-1800 c98 -55 101 -182 7 -253 -42 -31 -135 -34 -186 -5 -104 58 -103 211 1
262 48 24 132 22 178 -4z m-2160 -249 l0 -110 -150 0 -150 0 0 -460 0 -460
-140 0 -140 0 -2 458 -3 457 -147 3 -148 3 0 109 0 110 440 0 440 0 0 -110z
m700 -259 l0 -148 -79 -5 c-93 -5 -147 -30 -176 -79 -18 -31 -20 -55 -23 -286
l-3 -253 -140 0 -139 0 0 455 0 455 140 0 140 0 0 -72 0 -73 29 36 c55 66 150
117 224 118 l27 1 0 -149z m606 128 c32 -12 77 -40 101 -62 l43 -40 0 57 0 56
140 0 140 0 0 -455 0 -455 -140 0 -140 0 0 58 0 59 -42 -40 c-69 -66 -116 -82
-238 -82 -96 0 -110 2 -163 29 -64 33 -144 111 -175 172 -40 79 -56 154 -56
264 1 182 55 301 180 397 84 64 241 82 350 42z m1820 -19 c81 -40 135 -105
164 -197 18 -59 20 -92 20 -374 l0 -309 -140 0 -140 0 0 273 c0 263 -1 274
-22 317 -34 66 -66 85 -146 85 -54 0 -73 -4 -100 -23 -65 -47 -67 -57 -70
-369 l-3 -283 -140 0 -139 0 0 455 0 455 140 0 140 0 0 -56 0 -56 39 35 c76
68 137 88 255 83 63 -4 91 -10 142 -36z m-916 -425 l0 -455 -140 0 -140 0 0
455 0 455 140 0 140 0 0 -455z m782 -1667 l3 -323 130 177 130 177 173 1 c106
0 172 -4 170 -9 -1 -6 -82 -105 -178 -221 -96 -117 -176 -217 -178 -223 -1 -7
81 -111 183 -232 l184 -220 -166 -3 c-92 -1 -172 -1 -178 2 -6 2 -69 84 -141
182 l-129 179 -3 -183 -2 -182 -140 0 -140 0 0 600 0 600 140 0 140 0 2 -322z
m-3192 152 l0 -110 -150 0 -150 0 0 -460 0 -460 -140 0 -140 0 -2 458 -3 457
-147 3 -148 3 0 109 0 110 440 0 440 0 0 -110z m690 -259 l0 -148 -79 -5 c-93
-5 -147 -30 -176 -79 -18 -31 -20 -55 -23 -286 l-3 -253 -140 0 -139 0 0 455
0 455 140 0 140 0 0 -72 0 -73 29 36 c55 66 150 117 224 118 l27 1 0 -149z
m616 128 c32 -12 77 -40 101 -62 l43 -40 0 57 0 56 140 0 140 0 0 -455 0 -455
-140 0 -140 0 0 58 0 59 -42 -40 c-69 -66 -116 -82 -238 -82 -96 0 -110 2
-163 29 -64 33 -144 111 -175 172 -40 79 -56 154 -56 264 1 182 55 301 180
397 84 64 241 82 350 42z m1159 6 c144 -38 265 -158 291 -292 l7 -33 -149 0
-149 0 -17 29 c-50 88 -178 92 -242 8 -58 -76 -59 -247 0 -324 64 -84 192 -81
242 8 l17 29 152 0 153 0 -25 -66 c-63 -168 -194 -261 -380 -272 -158 -8 -282
35 -369 128 -198 212 -148 612 92 743 102 56 257 73 377 42z m-1805 -1638 c30
-16 51 -37 67 -67 l23 -43 0 -1057 0 -1057 -23 -43 c-38 -72 -84 -90 -232 -90
-148 0 -194 18 -232 90 -22 41 -23 54 -23 232 l0 188 -103 0 c-128 0 -178 21
-214 90 -22 41 -23 54 -23 230 l0 188 -31 6 c-77 15 -139 89 -139 166 0 77 62
151 139 166 l31 7 0 187 c0 176 1 189 23 230 36 69 86 90 214 90 l103 0 0 188
c0 178 1 191 23 232 38 72 84 90 232 90 108 0 127 -3 165 -23z m1870 0 c30
-16 51 -37 67 -67 22 -41 23 -54 23 -232 l0 -188 103 0 c128 0 178 -21 214
-90 22 -41 23 -54 23 -230 l0 -187 31 -7 c77 -15 139 -89 139 -166 0 -77 -62
-151 -139 -166 l-31 -6 0 -188 c0 -176 -1 -189 -23 -230 -36 -69 -86 -90 -214
-90 l-103 0 0 -188 c0 -178 -1 -191 -23 -232 -38 -72 -84 -90 -232 -90 -148 0
-194 18 -232 90 l-23 43 0 1057 0 1057 23 43 c38 72 84 90 232 90 108 0 127
-3 165 -23z m-590 -1167 l0 -170 -510 0 -510 0 0 170 0 170 510 0 510 0 0
-170z"/>
<path d="M4835 7346 c-65 -28 -115 -112 -115 -194 0 -90 51 -181 116 -208 40
-17 112 -18 151 -3 68 25 123 116 123 204 0 88 -55 179 -123 204 -38 15 -115
13 -152 -3z"/>
<path d="M4635 5256 c-65 -28 -115 -112 -115 -194 0 -90 51 -181 116 -208 40
-17 112 -18 151 -3 68 25 123 116 123 204 0 88 -55 179 -123 204 -38 15 -115
13 -152 -3z"/>
</g>
</svg>
